# xmcd CD database file
# Copyright (C) 1995-1998 Ti Kan
#
# Track frame offsets:
#	150
#	19280
#	38377
#	59935
#	76537
#	94865
#	116580
#	137247
#	150062
#	171420
#
# Disc length: 2527 seconds
#
# Revision: 1
# Processed by: cddbd v1.5.1PL0 Copyright (c) Steve Scherf et al.
# Submitted via: CDex 1.30JRelease
#
DISCID=7609dd0a
DTITLE=畠山美由紀 - 3 different tones
DYEAR=1900
DGENRE=Pop
TTITLE0=Summertime
TTITLE1=Diving into your mind
TTITLE2=真夏の湿原
TTITLE3=新しいシャツ
TTITLE4=ロマンスをもう一度
TTITLE5=Time After Time
TTITLE6=蘇州夜曲
TTITLE7=Cantador
TTITLE8=ほんの少し
TTITLE9=あなたの街へ
EXTD=ID3G:  13
EXTT0=
EXTT1=
EXTT2=
EXTT3=
EXTT4=
EXTT5=
EXTT6=
EXTT7=
EXTT8=
EXTT9=
PLAYORDER=
